<svg width="134" height="50" viewBox="0 0 134 50" fill="none" xmlns="http://www.w3.org/2000/svg">
<path fill-rule="evenodd" clip-rule="evenodd" d="M2.61444 24.4655C3.00645 25.037 3.55941 25.4795 4.20333 25.737C4.84724 25.9945 5.55318 26.0555 6.23179 25.9121C6.91041 25.7688 7.53121 25.4277 8.01561 24.9318C8.5 24.436 8.82622 23.8078 8.95299 23.1267C9.07977 22.4457 9.0014 21.7424 8.72779 21.1058C8.45418 20.4692 7.99763 19.928 7.41593 19.5507C6.83423 19.1734 6.15352 18.9769 5.45996 18.9861C4.76639 18.9953 4.09115 19.2097 3.51968 19.6024C2.75578 20.1288 2.23172 20.936 2.06208 21.8473C1.89245 22.7587 2.09103 23.7 2.61444 24.4655ZM25.8224 10.0025C26.3471 10.7695 27.0879 11.3638 27.9511 11.7101C28.8142 12.0564 29.7608 12.1391 30.671 11.9477C31.5812 11.7563 32.4141 11.2995 33.0642 10.635C33.7143 9.97059 34.1523 9.12844 34.3228 8.21521C34.4934 7.30198 34.3887 6.35876 34.0221 5.50497C33.6555 4.65118 33.0435 3.92524 32.2635 3.41907C31.4836 2.9129 30.5708 2.64925 29.6407 2.66154C28.7106 2.67383 27.8051 2.96149 27.0388 3.48809C26.015 4.19284 25.3123 5.27379 25.0843 6.49456C24.8564 7.71533 25.1218 8.97658 25.8224 10.0025ZM25.0236 44.3001C25.6584 45.229 26.5549 45.9488 27.5996 46.3685C28.6442 46.7881 29.7901 46.8887 30.8921 46.6575C31.994 46.4263 33.0025 45.8737 33.7898 45.0697C34.5771 44.2657 35.1078 43.2464 35.3146 42.141C35.5215 41.0355 35.3953 39.8936 34.9519 38.8599C34.5085 37.8262 33.7679 36.9471 32.8239 36.334C31.88 35.721 30.7751 35.4015 29.6491 35.4159C28.5232 35.4304 27.4269 35.7783 26.4991 36.4155C25.2607 37.2697 24.4106 38.5782 24.1342 40.0557C23.8578 41.5332 24.1775 43.06 25.0236 44.3031V44.3001Z" fill="#4d9ba7"/>
<path fill-rule="evenodd" clip-rule="evenodd" d="M24.4459 33.9036C19.389 32.6308 12.2564 27.6397 10.804 23.9811C10.7284 24.2424 10.6344 24.4981 10.5227 24.7462C12.1046 27.935 19.2974 33.4345 22.902 35.3356C23.3605 34.8012 23.8784 34.3208 24.4459 33.9036ZM10.9947 22.9001C13.9724 18.2719 21.3743 12.811 25.1077 13.1136C24.8944 12.9467 24.6914 12.7671 24.4996 12.5761H24.4921C21.5493 12.4474 14.1585 17.4087 10.6603 20.5522C10.9425 21.2999 11.0567 22.1004 10.9947 22.8971V22.9001ZM29.1589 32.2092C29.9957 27.5134 29.3488 18.8778 28.0795 14.5307C27.8447 14.4835 27.6133 14.4202 27.3872 14.3411C29.2043 19.1581 28.0795 29.4219 24.9462 33.5727C26.2135 32.7705 27.663 32.3004 29.1605 32.2062L29.1589 32.2092ZM29.8051 14.7121C29.4024 19.5373 30.7253 28.5052 32.4851 32.6256C33.0879 32.8234 33.6688 33.0822 34.2189 33.398C31.1466 29.3304 29.9682 19.2942 31.7399 14.4318C31.1106 14.6104 30.4601 14.7037 29.8059 14.7091L29.8051 14.7121ZM22.3764 8.51594L22.3607 8.56867C21.859 10.1895 15.1672 15.6051 8.65039 17.9835C8.84777 18.1194 9.03577 18.2684 9.21317 18.4295C14.1027 16.6043 21.2128 12.8095 23.2272 10.8928C22.8829 10.2714 22.6321 9.60281 22.4828 8.90847C22.4463 8.77836 22.4083 8.64229 22.3778 8.51367L22.3764 8.51594ZM7.77045 27.4881C10.4162 28.3803 17.443 33.3617 21.096 38.7668C21.1644 38.517 21.2449 38.259 21.3394 38.0166C18.585 34.1683 12.5491 28.1089 9.59884 26.1625C9.30871 26.4822 8.98211 26.7669 8.62581 27.0108C8.35614 27.1961 8.06979 27.3559 7.77045 27.4881Z" fill="grey"/>
<path d="M56.11 16.9194V26.3877H54.1402V22.2674H48.5733V26.3877H46.6042V16.9194H48.574V21.2525H54.1409V16.9194H56.11ZM65.8121 26.3877V18.6845H65.6827L60.5886 26.3877H58.0103V16.9194H59.9801V24.6309H60.1172L65.2039 16.9194H67.7811V26.3877H65.8121ZM77.4919 26.3877V18.6845H77.3556L72.2688 26.3877H69.6818V16.9194H71.6509V24.6309H71.7887L76.8827 16.9194H79.461V26.3877H77.4919ZM87.8112 25.0398H87.9475L91.476 16.9194H94.3959V26.3877H92.4269V18.8108H92.2891L89.0373 26.3877H86.7258L83.4711 18.8131H83.334V26.3877H81.365V16.9194H84.2849L87.8112 25.0398ZM99.6961 25.6457C100.161 25.6516 100.624 25.58 101.065 25.4339C101.471 25.3037 101.843 25.0894 102.16 24.8055C102.485 24.4987 102.742 24.1272 102.913 23.7149C103.115 23.2099 103.233 22.6751 103.263 22.132H98.1447V21.1157H103.263C103.233 20.5849 103.115 20.0629 102.913 19.5708C102.74 19.1658 102.487 18.7999 102.169 18.495C101.868 18.2129 101.51 17.9982 101.12 17.8658C100.702 17.7325 100.266 17.6661 99.8273 17.6689C99.2224 17.6681 98.622 17.7759 98.0553 17.9871C97.4537 18.2224 96.9037 18.5721 96.4355 19.0168L95.7587 18.2063C96.3042 17.7121 96.9393 17.3267 97.6296 17.0704C98.3754 16.7899 99.1663 16.6488 99.9633 16.654C100.716 16.6433 101.466 16.7533 102.184 16.9797C102.817 17.1714 103.401 17.4969 103.896 17.9343C104.379 18.3676 104.758 18.9035 105.006 19.5024C105.278 20.1867 105.413 20.9178 105.402 21.654C105.414 22.3901 105.28 23.1211 105.006 23.8048C104.755 24.4061 104.37 24.9425 103.881 25.3729C103.373 25.8147 102.777 26.1427 102.132 26.3349C101.384 26.5627 100.606 26.6726 99.8244 26.6606C99.0272 26.6658 98.2356 26.5244 97.4897 26.2434C96.7993 25.9873 96.1642 25.6016 95.6187 25.1073L96.2956 24.2971C96.765 24.7437 97.318 25.0936 97.923 25.3268C98.4895 25.5397 99.09 25.6477 99.6954 25.6457H99.6961Z" fill="grey"/>
<path fill-rule="evenodd" clip-rule="evenodd" d="M0.964574 25.5871C1.57844 26.4858 2.44555 27.1824 3.4561 27.5887C4.46664 27.9949 5.57516 28.0925 6.64128 27.8691C7.7074 27.6457 8.68316 27.1113 9.44499 26.3337C10.2068 25.5561 10.7205 24.5701 10.9208 23.5008C11.1212 22.4314 10.9994 21.3267 10.5707 20.3266C10.142 19.3264 9.42577 18.4758 8.51271 17.8825C7.59964 17.2891 6.53081 16.9797 5.44156 16.9935C4.35232 17.0072 3.29166 17.3435 2.3939 17.9597C1.19671 18.7859 0.374798 20.051 0.107098 21.4795C-0.160602 22.9081 0.147589 24.3844 0.964574 25.5871ZM1.82366 25.0042C2.32202 25.7337 3.02597 26.2991 3.84634 26.6286C4.6667 26.9582 5.56656 27.0372 6.43191 26.8556C7.29726 26.674 8.08917 26.2399 8.7073 25.6084C9.32544 24.977 9.74199 24.1764 9.90419 23.3083C10.0664 22.4402 9.96692 21.5435 9.6184 20.7319C9.26989 19.9202 8.688 19.2302 7.94646 18.7491C7.20492 18.268 6.33709 18.0176 5.45292 18.0296C4.56875 18.0415 3.70802 18.3153 2.97977 18.8162C2.00695 19.4853 1.33913 20.5121 1.12247 21.6718C0.905797 22.8315 1.15792 24.0297 1.82366 25.0042ZM23.7385 45.1823C24.5472 46.3663 25.6896 47.284 27.0209 47.819C28.3523 48.354 29.8127 48.4824 31.2171 48.1878C32.6216 47.8932 33.9069 47.189 34.9102 46.1642C35.9136 45.1395 36.5898 43.8404 36.8533 42.4316C37.1168 41.0227 36.9556 39.5674 36.3902 38.2501C35.8249 36.9327 34.8807 35.8126 33.6774 35.0316C32.4741 34.2506 31.0658 33.8439 29.6308 33.8629C28.1958 33.882 26.7988 34.326 25.6167 35.1386C24.0412 36.2274 22.9599 37.8936 22.6082 39.7745C22.2565 41.6554 22.6627 43.599 23.7385 45.1823ZM24.7599 10.7338C25.4287 11.7112 26.3728 12.4685 27.4728 12.9096C28.5728 13.3508 29.7791 13.456 30.9391 13.212C32.099 12.968 33.1603 12.3857 33.9887 11.5389C34.817 10.6921 35.3751 9.61879 35.5923 8.45498C35.8094 7.29117 35.6759 6.08917 35.2086 5.00119C34.7414 3.91321 33.9613 2.98819 32.9673 2.34326C31.9732 1.69834 30.8099 1.36251 29.6247 1.37832C28.4394 1.39413 27.2855 1.76085 26.309 2.43205C25.007 3.33228 24.1137 4.70968 23.8236 6.26447C23.5334 7.81926 23.87 9.42558 24.7599 10.7338ZM23.609 11.5122C24.4318 12.7172 25.5942 13.6512 26.949 14.1959C28.3037 14.7406 29.7898 14.8715 31.2191 14.5721C32.6484 14.2727 33.9566 13.5564 34.9779 12.5139C35.9993 11.4714 36.688 10.1497 36.9566 8.71603C37.2253 7.28241 37.062 5.80139 36.4873 4.46056C35.9125 3.11972 34.9523 1.97938 33.7282 1.18396C32.5041 0.38853 31.0712 -0.0261996 29.6109 -0.00770832C28.1506 0.010783 26.7287 0.461663 25.5252 1.28783C23.92 2.39512 22.818 4.09095 22.4591 6.00598C22.1002 7.92101 22.5135 9.90011 23.609 11.5122ZM22.3434 46.1273C23.3396 47.5866 24.7469 48.7177 26.3873 49.3775C28.0276 50.0373 29.8272 50.196 31.5579 49.8335C33.2887 49.4711 34.8728 48.6037 36.1095 47.3414C37.3463 46.0791 38.1802 44.4786 38.5054 42.7426C38.8307 41.0066 38.6327 39.2133 37.9366 37.5898C37.2405 35.9662 36.0776 34.5855 34.5952 33.6226C33.1128 32.6597 31.3776 32.1578 29.6093 32.1806C27.8411 32.2034 26.1194 32.7497 24.6623 33.7505C22.7207 35.0926 21.3881 37.1461 20.9545 39.4643C20.521 41.7825 21.0214 44.178 22.3471 46.1295L22.3434 46.1273Z" fill="grey"/>
<path d="M73.6513 38.2619C73.6513 38.2894 73.6513 38.303 73.6364 38.3171C73.6298 38.3311 73.6202 38.3434 73.6081 38.3531C73.5959 38.3627 73.5818 38.3693 73.5666 38.3727C73.5383 38.3727 73.4963 38.3854 73.4547 38.3854C73.335 38.4037 73.2134 38.4037 73.0937 38.3854C73.0386 38.3854 73.0104 38.3727 72.9843 38.3727C72.969 38.3694 72.9548 38.3627 72.9425 38.3531C72.9302 38.3434 72.9205 38.3312 72.9138 38.3171C72.8989 38.3022 72.8989 38.2894 72.8989 38.2619V33.3164H72.8854L70.8822 38.2895C70.8673 38.3029 70.856 38.3172 70.8411 38.3313C70.827 38.3595 70.7992 38.3593 70.7717 38.3734C70.7442 38.3875 70.701 38.3861 70.6608 38.3995H70.3551C70.3127 38.3854 70.2707 38.3853 70.2424 38.3734C70.2179 38.3627 70.1952 38.3487 70.1748 38.3313C70.1599 38.3172 70.1465 38.3029 70.1465 38.2895L68.2272 33.3164V38.2619C68.2269 38.2725 68.2246 38.2829 68.22 38.2924C68.2153 38.3019 68.2088 38.3104 68.2007 38.3171C68.1891 38.3418 68.1689 38.3614 68.144 38.3727C68.1164 38.3727 68.074 38.3854 68.0204 38.3854C67.9607 38.3979 67.8995 38.4027 67.8386 38.3995C67.7782 38.4029 67.7179 38.3981 67.6587 38.3854C67.6029 38.3854 67.5743 38.3727 67.546 38.3727C67.5308 38.3697 67.5167 38.3631 67.5046 38.3534C67.4925 38.3437 67.4831 38.3313 67.477 38.3171C67.477 38.3022 67.4628 38.2894 67.4628 38.2619V33.0405C67.4601 32.9922 67.4672 32.9439 67.4839 32.8986C67.5005 32.8532 67.5263 32.8117 67.5595 32.7766C67.6262 32.7336 67.7037 32.7099 67.783 32.7076H68.2414C68.3261 32.7014 68.4111 32.7107 68.4922 32.7356C68.5635 32.7457 68.6311 32.7744 68.6881 32.8183C68.7426 32.8508 68.7859 32.8991 68.8124 32.9566C68.8556 33.0204 68.8882 33.0905 68.9091 33.1647L70.5358 37.2785H70.5641L72.2606 33.1795C72.2878 33.103 72.3207 33.0286 72.3584 32.9566C72.3939 32.8979 72.4413 32.8471 72.4976 32.8078C72.5437 32.7725 72.5953 32.745 72.6502 32.7261C72.7145 32.7121 72.7801 32.7069 72.8458 32.7105H73.3296C73.3724 32.708 73.4152 32.7133 73.4561 32.7261C73.4938 32.7405 73.5276 32.7638 73.5539 32.7944C73.5848 32.8205 73.6088 32.8536 73.6244 32.8909C73.6486 32.9381 73.6585 32.9914 73.6528 33.0441L73.6513 38.2619ZM80.2829 35.4768C80.2888 35.894 80.2323 36.3098 80.1154 36.7104C80.0225 37.0553 79.8572 37.3765 79.6301 37.6524C79.4144 37.9148 79.1362 38.1191 78.8213 38.2471C78.4594 38.3908 78.0726 38.4615 77.6832 38.4547C77.3016 38.4673 76.9215 38.4011 76.5666 38.2605C76.2658 38.1429 75.9988 37.9528 75.7894 37.7072C75.578 37.4423 75.4257 37.1354 75.3427 36.8069C75.2314 36.4055 75.1797 35.9901 75.1893 35.5737C75.1836 35.1614 75.2404 34.7504 75.3576 34.355C75.4419 34.011 75.608 33.6924 75.8421 33.4264C76.0579 33.1645 76.3354 32.9602 76.6498 32.8318C77.3704 32.5646 78.1616 32.5548 78.8886 32.8042C79.1846 32.9317 79.45 33.1209 79.6672 33.3589C79.8854 33.6211 80.0425 33.9287 80.1266 34.2592C80.2331 34.6563 80.2857 35.0657 80.2829 35.4768ZM79.4767 35.5334C79.4789 35.231 79.4508 34.9292 79.3931 34.6324C79.3429 34.3781 79.2486 34.1344 79.1147 33.9125C78.9795 33.7098 78.7923 33.5472 78.5727 33.4413C78.3162 33.3237 78.0362 33.2669 77.7541 33.2754C77.47 33.2624 77.1875 33.3246 76.9351 33.4554C76.715 33.5663 76.5278 33.7329 76.3924 33.9386C76.2432 34.156 76.1395 34.4015 76.0878 34.66C76.0311 34.9424 76.0033 35.2297 76.0046 35.5178C76.002 35.8244 76.0298 36.1305 76.0878 36.4315C76.1302 36.6925 76.2246 36.9422 76.3655 37.166C76.4957 37.3676 76.6781 37.5304 76.8933 37.6368C77.1578 37.7488 77.4425 37.8051 77.7297 37.8027C78.017 37.8003 78.3007 37.7391 78.5632 37.6226C78.7805 37.5016 78.966 37.3309 79.1045 37.1246C79.2487 36.9015 79.3481 36.6522 79.3971 36.3913C79.4528 36.1087 79.4794 35.8214 79.4767 35.5334ZM85.2327 38.2619C85.2361 38.2858 85.2313 38.3104 85.2192 38.3313C85.2035 38.3488 85.1844 38.3629 85.1632 38.3734C85.1206 38.3781 85.0785 38.3869 85.0375 38.3995H84.6765C84.6414 38.386 84.6046 38.3772 84.5671 38.3734C84.5415 38.3629 84.5175 38.3489 84.4962 38.3313C84.4813 38.3172 84.4813 38.2894 84.4813 38.2619V33.3447H82.883C82.8138 34.0235 82.7297 34.6182 82.6471 35.129C82.5899 35.5811 82.5062 36.0296 82.3963 36.4718C82.3298 36.7948 82.232 37.1102 82.1044 37.4143C82.0242 37.6385 81.902 37.8456 81.7442 38.0242C81.6169 38.1668 81.4601 38.28 81.2847 38.3563C81.0954 38.4141 80.8985 38.4422 80.7006 38.4391C80.6722 38.4411 80.6436 38.436 80.6177 38.4242C80.5933 38.4132 80.5737 38.3938 80.5621 38.3698C80.545 38.3384 80.5311 38.3053 80.521 38.271C80.521 38.2301 80.5061 38.175 80.5061 38.1222C80.5061 38.0478 80.521 37.983 80.521 37.9414C80.5256 37.9039 80.5345 37.867 80.5472 37.8314C80.5505 37.8161 80.5572 37.8019 80.5668 37.7896C80.5765 37.7774 80.5887 37.7677 80.6028 37.761C80.6177 37.7476 80.6312 37.7475 80.6588 37.7475C80.7644 37.7463 80.8686 37.7223 80.9641 37.6775C81.0787 37.6221 81.1752 37.5355 81.2426 37.4277C81.3427 37.2707 81.4262 37.1038 81.4919 36.9296C81.5868 36.6482 81.666 36.3619 81.7293 36.0718C81.7978 35.7261 81.878 35.2954 81.9525 34.8077C82.0225 34.3103 82.0926 33.7142 82.176 33.0361C82.1806 32.9426 82.2089 32.8517 82.2585 32.7722C82.3131 32.7254 82.3833 32.7006 82.4552 32.7029H84.9862C85.0533 32.7026 85.1181 32.7275 85.168 32.7722C85.1954 32.8045 85.2156 32.842 85.2276 32.8826C85.2395 32.9232 85.2427 32.9659 85.237 33.0078L85.2327 38.2619ZM90.2798 38.0674C90.2828 38.1144 90.278 38.1616 90.2656 38.2071C90.2649 38.241 90.2554 38.2741 90.2376 38.303C90.2272 38.3241 90.213 38.343 90.1958 38.3592C90.1746 38.3705 90.1504 38.3755 90.1264 38.3734H87.3878C87.3545 38.3745 87.3211 38.3688 87.2901 38.3567C87.259 38.3445 87.2306 38.3264 87.2068 38.303C87.171 38.2761 87.143 38.2401 87.1258 38.1988C87.1085 38.1575 87.1026 38.1124 87.1087 38.0681V33.0122C87.1059 32.9736 87.1108 32.9351 87.1236 32.8986C87.1363 32.8621 87.1563 32.8283 87.1825 32.7998C87.2086 32.7713 87.2402 32.7486 87.2755 32.7326C87.3108 32.7167 87.3491 32.7083 87.3878 32.7076H90.0992C90.1191 32.7055 90.1388 32.7111 90.1548 32.7232C90.1787 32.734 90.1982 32.7528 90.2093 32.7766C90.2137 32.8104 90.2227 32.8434 90.2366 32.8746C90.2366 32.9162 90.2515 32.9713 90.2515 33.0271C90.2515 33.0828 90.2366 33.1237 90.2366 33.1654C90.2227 33.1966 90.2137 33.2295 90.2093 33.2634C90.1987 33.2875 90.1791 33.3068 90.1548 33.3171C90.1384 33.3282 90.1188 33.3332 90.0992 33.3313H87.8746V35.105H89.7804C89.8072 35.105 89.8212 35.1192 89.848 35.1334C89.8663 35.1482 89.8812 35.1672 89.8912 35.1885C89.908 35.2177 89.9171 35.2507 89.9174 35.2844C89.9302 35.3295 89.9352 35.3766 89.9323 35.4234C89.9352 35.4705 89.9302 35.5177 89.9174 35.5632C89.9174 35.5969 89.9083 35.6299 89.8912 35.659C89.8771 35.6739 89.8629 35.7008 89.848 35.7008C89.8273 35.712 89.8038 35.717 89.7804 35.7149H87.8746V37.7512H90.1264C90.1503 37.7492 90.1744 37.7539 90.1958 37.7646C90.213 37.7808 90.2272 37.8001 90.2376 37.8212C90.2558 37.8502 90.2653 37.8836 90.2656 37.9178C90.2785 37.9665 90.2836 38.0171 90.2805 38.0674H90.2798ZM95.6472 38.2619C95.6472 38.2894 95.6323 38.303 95.6323 38.3171C95.6164 38.3438 95.5914 38.3634 95.5618 38.3727C95.5246 38.3781 95.488 38.3869 95.4524 38.3988H95.2721C95.2023 38.402 95.1325 38.3972 95.0638 38.3846C95.0207 38.3854 94.978 38.3764 94.9387 38.3585C94.9101 38.3477 94.8856 38.3281 94.8693 38.3022C94.8515 38.2783 94.8415 38.2492 94.841 38.2195L94.3124 36.8345C94.2504 36.6697 94.1717 36.5119 94.0773 36.3633C93.9268 36.1113 93.6881 35.924 93.4073 35.8376C93.2521 35.8032 93.0935 35.7846 92.9344 35.7825H92.6153V38.2619C92.6153 38.2894 92.6152 38.303 92.6018 38.3171C92.5952 38.3313 92.5854 38.3437 92.5731 38.3534C92.5608 38.3631 92.5463 38.3695 92.5309 38.3727C92.5027 38.3727 92.4752 38.3854 92.4201 38.3854C92.3604 38.3981 92.2996 38.4029 92.2387 38.3995C92.1783 38.4021 92.1177 38.3974 92.0584 38.3854C92.0033 38.3854 91.9765 38.3727 91.9334 38.3727C91.9088 38.3613 91.8891 38.3417 91.8781 38.3171C91.8647 38.3022 91.8647 38.2894 91.8647 38.2619V32.8183C91.8626 32.7945 91.8673 32.7703 91.8781 32.749C91.8943 32.7322 91.913 32.7182 91.9334 32.7069C91.976 32.7034 92.018 32.6943 92.0584 32.68H92.4201C92.4561 32.6925 92.4932 32.7015 92.5309 32.7069C92.5577 32.7149 92.5821 32.7292 92.6018 32.749C92.6126 32.7703 92.6173 32.7945 92.6153 32.8183V35.1319H92.9344C93.0893 35.1373 93.2441 35.1183 93.3932 35.076C93.5219 35.0371 93.6406 34.9711 93.7414 34.8821C93.8515 34.7922 93.9456 34.6842 94.0198 34.563C94.0891 34.424 94.1585 34.271 94.2285 34.0918L94.6596 32.859C94.6625 32.8295 94.6717 32.8013 94.6868 32.7758C94.7034 32.7512 94.7276 32.7326 94.7555 32.7225C94.7918 32.7054 94.8293 32.6911 94.8679 32.68H95.2557C95.2989 32.6941 95.3405 32.6942 95.368 32.7069C95.3884 32.7182 95.4071 32.7322 95.4233 32.749C95.4335 32.7705 95.438 32.7946 95.436 32.8183C95.4372 32.8557 95.4328 32.8929 95.4233 32.929C95.405 32.974 95.3909 33.0205 95.3815 33.0681L94.9224 34.2458C94.8733 34.4045 94.8078 34.5575 94.7272 34.7028C94.6623 34.8195 94.5878 34.9306 94.504 35.0346C94.4213 35.1241 94.3277 35.2029 94.2256 35.2695C94.1239 35.3271 94.0163 35.3735 93.9046 35.4078V35.422C94.0338 35.4579 94.1561 35.5147 94.267 35.59C94.378 35.6608 94.4805 35.7441 94.5723 35.8384C94.6682 35.9441 94.7518 36.0602 94.8217 36.1847C94.907 36.341 94.9815 36.5029 95.0449 36.6693L95.5745 38.0136C95.6038 38.0645 95.6219 38.1211 95.6279 38.1795C95.6415 38.2049 95.6483 38.2332 95.6479 38.2619H95.6472ZM99.3872 36.7935C99.2786 37.077 99.1543 37.3543 99.015 37.6241C98.9223 37.8089 98.8004 37.9775 98.654 38.1236C98.5422 38.2382 98.4039 38.3237 98.2513 38.3727C98.0884 38.4195 97.9198 38.4429 97.7504 38.442C97.6953 38.442 97.6244 38.4271 97.5559 38.4271C97.5001 38.413 97.4318 38.3988 97.3753 38.3846C97.3212 38.3761 97.2692 38.3579 97.2219 38.3306C97.1846 38.3221 97.1508 38.3022 97.1252 38.2739C97.1127 38.269 97.1013 38.2618 97.0917 38.2525C97.0821 38.2432 97.0744 38.2318 97.0692 38.2195C97.0543 38.2061 97.0542 38.178 97.0416 38.1505C97.0416 38.1237 97.0274 38.0948 97.0274 38.0398V37.8873C97.0255 37.8081 97.0346 37.7291 97.0543 37.6524C97.0826 37.5981 97.11 37.5689 97.1524 37.5689C97.1819 37.5717 97.2106 37.5817 97.2353 37.598C97.2757 37.6154 97.3133 37.6389 97.3469 37.6673C97.4011 37.6898 97.4569 37.7082 97.5137 37.7228C97.5871 37.7395 97.6618 37.7486 97.7369 37.7497C97.8068 37.747 97.8762 37.738 97.9445 37.7228C98.0116 37.704 98.0737 37.6706 98.1262 37.6248C98.1921 37.5587 98.2483 37.4838 98.2931 37.4019C98.3763 37.2803 98.4462 37.1502 98.5021 37.0138L96.4712 32.9541C96.4462 32.9121 96.4321 32.865 96.4298 32.8161C96.4261 32.8089 96.4238 32.8007 96.4233 32.7925C96.4227 32.7844 96.4239 32.7766 96.4265 32.7689C96.4292 32.7613 96.4331 32.754 96.4385 32.7479C96.4439 32.7418 96.4508 32.7369 96.4582 32.7334C96.4937 32.7039 96.5367 32.6851 96.5825 32.6786H96.999C97.0415 32.6849 97.0838 32.6936 97.1252 32.7051C97.1527 32.7207 97.1809 32.7476 97.207 32.7617C97.2218 32.7885 97.2353 32.8158 97.2495 32.8441L98.2647 34.9224C98.3891 35.1455 98.4882 35.3685 98.5991 35.5879C98.6959 35.8109 98.7939 36.0161 98.8907 36.2243H98.9056C98.9885 36.0022 99.0722 35.7806 99.156 35.5596C99.2387 35.3365 99.3225 35.1014 99.4334 34.8389L100.226 32.8154C100.237 32.7907 100.25 32.7673 100.267 32.7461C100.289 32.7293 100.313 32.715 100.338 32.7036C100.377 32.6855 100.419 32.6766 100.462 32.6771H100.671C100.741 32.6739 100.811 32.6783 100.879 32.6909C100.935 32.6909 100.977 32.7044 100.991 32.7326C101.005 32.7378 101.016 32.7477 101.024 32.7602C101.031 32.7728 101.034 32.7875 101.032 32.802C101.028 32.8356 101.019 32.8683 101.005 32.8993L99.3872 36.7935ZM105.214 38.2619C105.217 38.2858 105.213 38.3104 105.201 38.3313C105.179 38.3483 105.155 38.3622 105.13 38.3734C105.092 38.3771 105.054 38.3859 105.018 38.3995H104.658C104.617 38.387 104.576 38.3782 104.534 38.3734C104.512 38.3631 104.494 38.349 104.478 38.3313C104.463 38.3172 104.463 38.2894 104.463 38.2619V33.3447H102.864C102.781 34.0235 102.711 34.6182 102.629 35.129C102.546 35.6398 102.462 36.0956 102.378 36.4718C102.311 36.7946 102.213 37.11 102.086 37.4143C102 37.6363 101.878 37.8426 101.724 38.0242C101.597 38.1671 101.44 38.2804 101.264 38.3563C101.071 38.4132 100.87 38.4413 100.669 38.4391C100.642 38.4391 100.614 38.4391 100.6 38.4242C100.572 38.4138 100.547 38.3946 100.529 38.3698C100.512 38.3398 100.502 38.3058 100.502 38.271C100.489 38.2225 100.484 38.1722 100.487 38.1222C100.483 38.0616 100.488 38.0006 100.502 37.9414C100.5 37.9028 100.51 37.8647 100.529 37.8314C100.537 37.8044 100.552 37.7802 100.572 37.761C100.594 37.7502 100.618 37.7456 100.642 37.7475C100.747 37.7464 100.851 37.7224 100.946 37.6775C101.057 37.6213 101.149 37.5346 101.211 37.4277C101.321 37.2743 101.41 37.1068 101.475 36.9296C101.545 36.7066 101.628 36.4175 101.711 36.0718C101.781 35.7261 101.85 35.2954 101.935 34.8077C102.004 34.3103 102.075 33.7142 102.143 33.0361C102.144 32.9397 102.178 32.8467 102.24 32.7722C102.264 32.749 102.293 32.7307 102.324 32.7189C102.355 32.707 102.388 32.7015 102.422 32.7029H104.953C105.024 32.7004 105.094 32.7253 105.149 32.7722C105.198 32.8405 105.222 32.9237 105.218 33.0078L105.214 38.2619ZM110.58 38.2619C110.584 38.2859 110.578 38.3106 110.566 38.3313C110.546 38.3488 110.523 38.3628 110.498 38.3734C110.46 38.377 110.422 38.3858 110.386 38.3995H110.025C109.984 38.3856 109.942 38.3767 109.899 38.3734C109.885 38.3593 109.857 38.3454 109.843 38.3313C109.832 38.3101 109.827 38.2857 109.83 38.2619V35.8924H109.259C109.081 35.8879 108.903 35.9116 108.732 35.9625C108.613 36.0119 108.505 36.0818 108.411 36.1691C108.318 36.2663 108.243 36.3792 108.188 36.5023C108.117 36.6265 108.063 36.7652 107.994 36.9169L107.507 38.2195C107.496 38.253 107.481 38.2859 107.464 38.3171C107.444 38.339 107.42 38.3576 107.394 38.3727C107.351 38.375 107.31 38.3839 107.27 38.3988H107.089C107.02 38.4025 106.95 38.3977 106.881 38.3846C106.842 38.386 106.804 38.3769 106.77 38.3585C106.757 38.3579 106.746 38.3537 106.736 38.3462C106.726 38.3386 106.718 38.3283 106.714 38.3164C106.7 38.3015 106.7 38.2887 106.7 38.2612C106.699 38.2282 106.704 38.1953 106.714 38.1639C106.724 38.0951 106.748 38.0288 106.783 37.969L107.244 36.7644C107.293 36.6258 107.353 36.4917 107.423 36.3626C107.476 36.2549 107.541 36.1532 107.617 36.0598C107.685 35.9746 107.76 35.8954 107.841 35.8227C107.926 35.7636 108.019 35.7172 108.117 35.6852C107.953 35.6397 107.795 35.5739 107.646 35.4895C107.509 35.4217 107.386 35.3282 107.285 35.2143C107.079 34.9601 106.975 34.6393 106.993 34.3133C106.986 34.091 107.023 33.8697 107.103 33.662C107.181 33.469 107.305 33.2979 107.464 33.1632C107.641 33.005 107.85 32.8869 108.077 32.8169C108.418 32.7349 108.768 32.6974 109.119 32.7058H110.3C110.34 32.7033 110.379 32.7098 110.416 32.7247C110.453 32.7395 110.485 32.7625 110.512 32.7918C110.539 32.8211 110.558 32.8559 110.569 32.8938C110.581 32.9318 110.583 32.9717 110.577 33.0107L110.58 38.2619ZM109.83 33.3164H109.107C108.877 33.3066 108.647 33.3346 108.426 33.3995C108.289 33.4362 108.162 33.5029 108.054 33.5945C107.96 33.6768 107.888 33.7814 107.846 33.8991C107.806 34.0241 107.787 34.1554 107.79 34.2868C107.785 34.4199 107.809 34.5526 107.86 34.6756C107.903 34.7966 107.974 34.9054 108.068 34.9929C108.179 35.0835 108.305 35.1542 108.44 35.2012C108.648 35.2643 108.865 35.2918 109.082 35.2829H109.832L109.83 33.3164ZM115.935 34.3706C115.94 34.6311 115.893 34.89 115.796 35.1319C115.711 35.3553 115.572 35.5548 115.393 35.7127C115.208 35.881 114.99 36.0078 114.752 36.0845C114.457 36.1862 114.147 36.2333 113.835 36.2235H113.196V38.259C113.196 38.2865 113.196 38.3001 113.181 38.3142C113.165 38.3399 113.14 38.3593 113.111 38.3698C113.083 38.3698 113.042 38.3825 113 38.3825C112.941 38.3946 112.881 38.3993 112.82 38.3966C112.76 38.4 112.699 38.3952 112.64 38.3825C112.585 38.3825 112.542 38.3698 112.515 38.3698C112.49 38.3589 112.469 38.3392 112.458 38.3142C112.444 38.2993 112.444 38.2865 112.444 38.259V33.0234C112.44 32.9782 112.446 32.9325 112.461 32.8895C112.475 32.8464 112.498 32.8069 112.528 32.7729C112.59 32.7319 112.662 32.7078 112.736 32.7036H113.96C114.077 32.7009 114.193 32.7061 114.308 32.7192C114.445 32.7317 114.58 32.7548 114.713 32.7878C114.877 32.8254 115.036 32.8857 115.184 32.9675C115.336 33.0605 115.472 33.1774 115.588 33.3135C115.701 33.4481 115.786 33.6039 115.837 33.772C115.908 33.9634 115.942 34.1667 115.936 34.3706H115.935ZM115.143 34.4247C115.15 34.2235 115.107 34.0238 115.018 33.8435C114.936 33.703 114.822 33.5845 114.684 33.4979C114.566 33.4247 114.433 33.3773 114.295 33.3589C114.162 33.3302 114.027 33.3156 113.891 33.3157H113.196V35.6024H113.877C114.071 35.6083 114.264 35.58 114.448 35.5185C114.588 35.4638 114.716 35.3788 114.82 35.2695C114.929 35.1677 115.01 35.0397 115.056 34.8978C115.113 34.7467 115.143 34.5863 115.143 34.4247H115.143ZM121.538 38.2619C121.538 38.2894 121.538 38.303 121.524 38.3171C121.513 38.3421 121.493 38.3618 121.467 38.3727C121.428 38.3727 121.4 38.3854 121.345 38.3854C121.285 38.3979 121.224 38.4027 121.163 38.3995C121.103 38.4028 121.042 38.398 120.983 38.3854C120.941 38.3854 120.9 38.3727 120.871 38.3727C120.843 38.3623 120.818 38.3429 120.802 38.3171C120.787 38.3022 120.787 38.2894 120.787 38.2619V35.74H118.202V38.2619C118.202 38.2894 118.202 38.303 118.187 38.3171C118.171 38.3426 118.146 38.3619 118.118 38.3727C118.09 38.3727 118.048 38.3854 118.006 38.3854C117.947 38.3975 117.886 38.4022 117.826 38.3995C117.765 38.4029 117.704 38.3981 117.644 38.3854C117.59 38.3854 117.548 38.3727 117.52 38.3727C117.495 38.3618 117.475 38.342 117.465 38.3171C117.451 38.3022 117.451 38.2894 117.451 38.2619V32.8183C117.449 32.7945 117.454 32.7703 117.465 32.749C117.48 32.7319 117.499 32.7178 117.52 32.7069C117.562 32.702 117.604 32.6929 117.644 32.68H118.006C118.042 32.6939 118.08 32.703 118.118 32.7069C118.142 32.7185 118.166 32.7325 118.187 32.749C118.199 32.77 118.204 32.7943 118.202 32.8183V35.0902H120.787V32.8183C120.785 32.7943 120.79 32.77 120.802 32.749C120.823 32.7322 120.847 32.7182 120.871 32.7069C120.91 32.7031 120.947 32.694 120.983 32.68H121.345C121.385 32.6939 121.426 32.703 121.467 32.7069C121.488 32.7178 121.508 32.7319 121.524 32.749C121.535 32.7702 121.54 32.7944 121.538 32.8183V38.2619ZM128.171 35.4768C128.175 35.8926 128.126 36.3074 128.022 36.7104C127.923 37.053 127.757 37.3731 127.535 37.6524C127.315 37.9153 127.034 38.1195 126.716 38.2471C126.354 38.3918 125.967 38.4625 125.577 38.4547C125.197 38.4671 124.819 38.4009 124.465 38.2605C124.166 38.1468 123.902 37.9558 123.7 37.7072C123.479 37.4467 123.323 37.1385 123.242 36.8069C123.137 36.4043 123.085 35.9898 123.089 35.5737C123.083 35.1615 123.138 34.7506 123.255 34.355C123.346 34.013 123.512 33.6957 123.742 33.4264C123.962 33.1644 124.243 32.9603 124.561 32.8318C125.277 32.5648 126.063 32.555 126.785 32.8042C127.083 32.9284 127.35 33.118 127.565 33.3589C127.782 33.6217 127.939 33.9291 128.024 34.2592C128.134 34.6554 128.184 35.0657 128.172 35.4768H128.171ZM127.38 35.5334C127.385 35.2302 127.352 34.9275 127.282 34.6324C127.238 34.3766 127.143 34.1319 127.004 33.9125C126.874 33.7103 126.692 33.5475 126.476 33.4413C126.214 33.322 125.928 33.2651 125.641 33.2754C125.357 33.2638 125.075 33.326 124.822 33.4554C124.604 33.5699 124.418 33.7358 124.279 33.9386C124.135 34.1591 124.032 34.4034 123.973 34.66C123.917 34.9424 123.888 35.2297 123.89 35.5178C123.887 35.8244 123.915 36.1305 123.973 36.4315C124.024 36.6903 124.118 36.9386 124.251 37.166C124.385 37.3644 124.567 37.5264 124.78 37.6368C125.045 37.7488 125.329 37.8051 125.616 37.8027C125.903 37.8003 126.186 37.7391 126.448 37.6226C126.666 37.502 126.852 37.3313 126.991 37.1246C127.134 36.9008 127.233 36.6518 127.283 36.3913C127.352 36.1106 127.385 35.8224 127.38 35.5334H127.38ZM133.999 38.2619C133.996 38.2852 133.991 38.3085 133.985 38.3313C133.964 38.3486 133.94 38.3626 133.915 38.3734C133.877 38.377 133.839 38.3859 133.804 38.3995H133.432C133.396 38.386 133.36 38.3771 133.322 38.3734C133.301 38.3627 133.282 38.3486 133.265 38.3313C133.248 38.3124 133.238 38.2877 133.237 38.2619V34.5507C133.235 34.4533 133.24 34.3558 133.252 34.2592C133.249 34.1712 133.254 34.0832 133.266 33.996H133.252C133.221 34.0377 133.197 34.0845 133.182 34.1343C133.142 34.1749 133.109 34.2216 133.084 34.2726C133.055 34.3284 133.014 34.3831 132.988 34.4255C132.958 34.4785 132.925 34.5297 132.89 34.5786L130.428 38.2754C130.414 38.291 130.386 38.3186 130.372 38.332C130.351 38.349 130.328 38.363 130.303 38.3741C130.275 38.3868 130.248 38.3869 130.207 38.4003H129.899C129.868 38.3886 129.836 38.3798 129.803 38.3741C129.775 38.36 129.761 38.332 129.747 38.3186C129.735 38.2978 129.73 38.2732 129.733 38.2492V32.822C129.731 32.798 129.736 32.7738 129.747 32.7526C129.769 32.736 129.792 32.722 129.817 32.7105C129.843 32.6971 129.887 32.697 129.927 32.6836H130.289C130.327 32.6897 130.364 32.6987 130.4 32.7105C130.427 32.7183 130.451 32.7326 130.47 32.7526C130.481 32.774 130.485 32.7981 130.483 32.822V36.8124C130.486 36.9006 130.481 36.9888 130.47 37.0763H130.483C130.526 37.0057 130.581 36.9209 130.637 36.8124C130.706 36.7142 130.777 36.6033 130.847 36.5067L133.293 32.8078C133.321 32.7795 133.335 32.7667 133.349 32.7526C133.369 32.7355 133.393 32.7215 133.417 32.7105C133.445 32.6971 133.473 32.697 133.516 32.6836H133.834C133.877 32.6978 133.905 32.6979 133.932 32.7105C133.957 32.7223 133.977 32.742 133.989 32.7668C133.989 32.7794 134.003 32.7937 134.003 32.8212L133.999 38.2619ZM133.262 31.225C133.262 31.3725 133.234 31.5188 133.178 31.6555C133.135 31.7949 133.053 31.9192 132.942 32.0146C132.825 32.1289 132.682 32.2142 132.525 32.2636C132.33 32.3353 132.122 32.3683 131.914 32.3609C131.711 32.366 131.508 32.338 131.314 32.2778C131.159 32.2334 131.016 32.1532 130.898 32.0436C130.784 31.948 130.697 31.8235 130.646 31.6835C130.577 31.541 130.544 31.384 130.549 31.2257C130.553 31.2019 130.557 31.1782 130.563 31.1549C130.581 31.1304 130.605 31.1118 130.634 31.1008C130.67 31.089 130.707 31.0797 130.745 31.0732H131.064C131.099 31.0818 131.133 31.0965 131.163 31.1164C131.188 31.1268 131.208 31.1461 131.218 31.1705V31.2548C131.22 31.331 131.234 31.4062 131.261 31.4777C131.299 31.5437 131.345 31.6046 131.399 31.6584C131.464 31.7155 131.54 31.7578 131.622 31.7826C131.81 31.8561 132.019 31.8561 132.206 31.7826C132.284 31.7577 132.355 31.7152 132.414 31.6584C132.471 31.6022 132.519 31.5361 132.554 31.4635C132.583 31.3928 132.597 31.317 132.596 31.2406C132.596 31.2123 132.596 31.1847 132.611 31.1705C132.611 31.143 132.624 31.1291 132.652 31.1164C132.678 31.0991 132.706 31.0846 132.735 31.0732H133.068C133.106 31.0797 133.143 31.089 133.18 31.1008C133.207 31.1164 133.235 31.1289 133.235 31.1549C133.252 31.1743 133.261 31.1993 133.262 31.225Z" fill="grey"/>
<path d="M50.735 43.5664C50.7457 43.9964 50.694 44.4255 50.5816 44.8407C50.4891 45.1791 50.3282 45.4949 50.1084 45.7686C49.9003 46.0231 49.633 46.2229 49.3297 46.3501C48.9865 46.4914 48.6168 46.5574 48.2458 46.544C48.0922 46.5485 47.9383 46.539 47.7863 46.5157C47.6318 46.4875 47.4791 46.4509 47.3287 46.4057C47.2034 46.3727 47.0818 46.3261 46.9667 46.2666C46.8846 46.2257 46.8054 46.1795 46.7293 46.1283C46.698 46.0997 46.6706 46.0673 46.6475 46.0318C46.6334 46.0035 46.6333 45.9761 46.6199 45.9494C46.6199 45.9211 46.605 45.8788 46.605 45.8379V45.6586C46.5972 45.5877 46.607 45.5158 46.6333 45.4495C46.6388 45.4285 46.6515 45.4103 46.669 45.3976C46.6865 45.3848 46.7077 45.3786 46.7293 45.3798C46.7874 45.3938 46.8408 45.4226 46.8841 45.4636C46.9709 45.5317 47.0636 45.5921 47.1611 45.6437C47.3048 45.716 47.4543 45.7766 47.6079 45.8245C47.8226 45.8713 48.0417 45.894 48.2614 45.8927C48.499 45.8962 48.7351 45.8541 48.9568 45.7686C49.1569 45.6754 49.333 45.5378 49.4719 45.3663C49.6243 45.1748 49.7337 44.9527 49.7921 44.7151C49.8811 44.4239 49.9232 44.1205 49.9172 43.8162H47.1626C47.1358 43.8162 47.1215 43.8028 47.0924 43.8028C47.079 43.7879 47.0659 43.7603 47.0517 43.7461C47.034 43.7119 47.0245 43.674 47.0241 43.6354C47.011 43.5906 47.0062 43.5437 47.0099 43.4971C47.0071 43.4503 47.0119 43.4033 47.0241 43.3581C47.0224 43.3237 47.0321 43.2898 47.0517 43.2615C47.0626 43.2369 47.0761 43.2139 47.0924 43.1925C47.1142 43.182 47.1385 43.1773 47.1626 43.1791H49.903C49.891 42.9143 49.839 42.6529 49.7489 42.4037C49.6749 42.1868 49.5617 41.985 49.4152 41.8087C49.2565 41.6422 49.0641 41.5117 48.8507 41.4257C48.6373 41.3396 48.4078 41.3001 48.1778 41.3099C47.9894 41.3067 47.8021 41.3348 47.6228 41.3926C47.4758 41.4261 47.3351 41.4822 47.2058 41.5596C47.08 41.6154 46.9966 41.6698 46.9125 41.7085C46.8433 41.765 46.8015 41.7916 46.7598 41.7916C46.7521 41.7926 46.7443 41.7919 46.7369 41.7894C46.7296 41.787 46.7229 41.7828 46.7173 41.7774C46.7039 41.7648 46.6908 41.7509 46.6908 41.7368C46.6735 41.7074 46.6639 41.6743 46.6631 41.6402C46.6494 41.5952 46.6444 41.548 46.6482 41.5012V41.3523C46.6631 41.31 46.6632 41.2833 46.6766 41.2543C46.6795 41.2249 46.6886 41.1962 46.7039 41.1708C46.7201 41.1495 46.7342 41.1268 46.7457 41.1026C46.7725 41.0884 46.8299 41.0469 46.9125 40.9918C46.9959 40.9495 47.1066 40.8952 47.2466 40.8379C47.3858 40.797 47.5385 40.7561 47.706 40.7138C47.8882 40.6745 48.0743 40.6559 48.2607 40.6586C48.6222 40.655 48.981 40.7208 49.3178 40.8521C49.6172 40.9798 49.8834 41.1738 50.0964 41.4199C50.3177 41.6894 50.4835 42.0003 50.5834 42.3343C50.6937 42.7354 50.7445 43.1506 50.735 43.5664ZM55.8792 46.3639C55.8812 46.3837 55.8759 46.4037 55.8643 46.4198C55.8432 46.4365 55.8201 46.4504 55.7953 46.4609C55.7677 46.475 55.7261 46.4751 55.6851 46.4892C55.63 46.4892 55.5733 46.503 55.5041 46.503C55.4215 46.503 55.3647 46.4892 55.3082 46.4892C55.2672 46.4751 55.2256 46.475 55.1973 46.4609C55.1728 46.4503 55.1499 46.4364 55.129 46.4198C55.1179 46.4035 55.1129 46.3836 55.1148 46.3639V41.3908H53.5016C53.4182 42.0704 53.3472 42.6803 53.2646 43.1918C53.182 43.7182 53.0979 44.1618 53.0152 44.5492C52.9369 44.8733 52.8389 45.1924 52.7219 45.5047C52.6306 45.7261 52.505 45.9317 52.3497 46.1142C52.2272 46.2618 52.0693 46.3761 51.8906 46.446C51.6998 46.5149 51.4976 46.5478 51.2948 46.5433C51.2673 46.5433 51.2406 46.5284 51.2116 46.5284C51.1901 46.5083 51.1717 46.4854 51.1567 46.4601C51.14 46.4292 51.1259 46.3966 51.1149 46.3632V46.031C51.1273 45.9951 51.1364 45.958 51.1418 45.9203C51.1451 45.9049 51.1518 45.8905 51.1618 45.8782C51.1717 45.8659 51.1844 45.856 51.1988 45.8495C51.215 45.8394 51.2344 45.8349 51.2534 45.8368C51.3634 45.8353 51.4718 45.812 51.5725 45.7678C51.6847 45.7091 51.7805 45.6232 51.851 45.5181C51.9543 45.3579 52.0384 45.1863 52.1018 45.0066C52.1959 44.7248 52.275 44.4379 52.338 44.1477C52.4214 43.7871 52.4905 43.3716 52.5612 42.8578C52.6454 42.3612 52.7144 41.765 52.7844 41.0862C52.7863 40.9921 52.8155 40.9005 52.868 40.8223C52.8919 40.7944 52.9218 40.7724 52.9556 40.7581C52.9895 40.7437 53.0262 40.7373 53.0629 40.7395H55.6222C55.6589 40.7372 55.696 40.7434 55.7298 40.7577C55.7637 40.772 55.7936 40.7943 55.8174 40.8223C55.867 40.8857 55.8918 40.9649 55.8869 41.0452L55.8792 46.3639ZM61.1216 46.1567C61.1216 46.2109 61.1074 46.2533 61.1074 46.2964C61.1068 46.3301 61.097 46.363 61.079 46.3915C61.0649 46.4198 61.0375 46.4341 61.0249 46.4467C61.0057 46.4644 60.9808 46.4747 60.9547 46.4758H58.2005C58.13 46.4736 58.0618 46.4489 58.006 46.4057C57.9702 46.3758 57.9425 46.3376 57.9253 46.2942C57.9082 46.2509 57.9022 46.2037 57.9079 46.1574V41.0459C57.9022 41.0016 57.9081 40.9565 57.9253 40.9152C57.9426 40.874 57.9704 40.8381 58.006 40.8111C58.0615 40.7674 58.1299 40.7427 58.2005 40.741H60.9249C60.9494 40.7388 60.9742 40.7439 60.9958 40.7559C61.0131 40.7716 61.0274 40.7907 61.0376 40.8118C61.0552 40.8461 61.0643 40.884 61.0649 40.9225C61.0779 40.9671 61.0827 41.0138 61.079 41.0601C61.0827 41.1069 61.0778 41.154 61.0649 41.1991C61.0644 41.2377 61.0552 41.2756 61.0376 41.3099C61.0242 41.324 61.0092 41.3523 60.9958 41.3523C60.9675 41.3657 60.9539 41.3785 60.9249 41.3785H58.6731V43.1628H60.6087C60.6362 43.1628 60.6502 43.177 60.6785 43.1903C60.6959 43.206 60.7102 43.2247 60.7203 43.2459C60.7381 43.275 60.748 43.3083 60.7486 43.3425C60.7602 43.3881 60.7648 43.4352 60.7621 43.4822C60.7655 43.529 60.761 43.576 60.7486 43.6213C60.7478 43.6554 60.738 43.689 60.7203 43.7182C60.71 43.7392 60.6958 43.7579 60.6785 43.7737C60.6568 43.7846 60.6328 43.7892 60.6087 43.7872H58.6731V45.8368H60.954C60.9781 45.8337 61.0027 45.8382 61.0241 45.8495C61.0375 45.8644 61.0649 45.8779 61.0783 45.9062C61.0962 45.9353 61.106 45.9686 61.1067 46.0027C61.1074 46.0451 61.1208 46.1001 61.1208 46.1581L61.1216 46.1567ZM66.67 46.3501C66.6736 46.3745 66.6683 46.3991 66.6551 46.4198C66.6391 46.4362 66.6206 46.4501 66.6005 46.4609C66.5593 46.4732 66.5173 46.4827 66.4748 46.4892C66.4323 46.4892 66.3641 46.503 66.2948 46.503C66.2107 46.503 66.1413 46.4892 66.0862 46.4892C66.0437 46.4773 66.0019 46.4629 65.9612 46.446C65.9319 46.4368 65.9071 46.4171 65.8914 46.3908C65.8814 46.3796 65.8737 46.3665 65.8688 46.3523C65.864 46.3382 65.862 46.3233 65.863 46.3084L65.3345 44.9093C65.2666 44.7471 65.1881 44.5895 65.0993 44.4377C65.0151 44.3118 64.9118 44.1999 64.7932 44.1055C64.6813 44.0201 64.5554 43.9545 64.421 43.912C64.267 43.8666 64.1072 43.8435 63.9467 43.8431H63.6275V46.3494C63.6267 46.3753 63.6166 46.3999 63.5992 46.4191C63.5834 46.4359 63.5646 46.4499 63.5439 46.4601C63.5027 46.4727 63.4607 46.4822 63.4181 46.4885C63.3779 46.4885 63.3078 46.5023 63.2371 46.5023C63.1664 46.5023 63.113 46.4885 63.0572 46.4885C63.0149 46.4819 62.9731 46.4724 62.9321 46.4601C62.9116 46.4497 62.8928 46.4358 62.8769 46.4191C62.8643 46.3981 62.8592 46.3736 62.8627 46.3494V40.8474C62.8627 40.8191 62.8627 40.8067 62.8769 40.7925C62.8903 40.7643 62.9053 40.7508 62.9321 40.7508C62.9711 40.7319 63.0139 40.7224 63.0572 40.7232C63.1163 40.7106 63.1767 40.7055 63.2371 40.7083C63.2978 40.7047 63.3588 40.7097 63.4181 40.7232C63.4617 40.7222 63.5048 40.7317 63.5439 40.7508C63.5722 40.7508 63.5858 40.7643 63.5992 40.7925C63.6075 40.7991 63.6143 40.8074 63.6191 40.8169C63.624 40.8264 63.627 40.8367 63.6275 40.8474V43.1878H63.9467C64.1017 43.1929 64.2567 43.1746 64.4061 43.133C64.5345 43.0938 64.6529 43.0275 64.7536 42.9388C64.8674 42.8473 64.9619 42.7342 65.0313 42.6059C65.1227 42.4596 65.193 42.3009 65.24 42.135L65.6707 40.8891C65.6849 40.8609 65.6984 40.8327 65.7132 40.806C65.7335 40.7839 65.7573 40.7649 65.7834 40.7501C65.8177 40.7324 65.8557 40.7229 65.8943 40.7225C65.9629 40.7093 66.0327 40.7043 66.1026 40.7076C66.1628 40.7033 66.2234 40.7084 66.2821 40.7225C66.3214 40.7212 66.3602 40.7308 66.3944 40.7501C66.4212 40.7501 66.4497 40.7636 66.4497 40.7918C66.4631 40.8059 66.4628 40.8184 66.4628 40.8466C66.4649 40.8841 66.4606 40.9215 66.4497 40.9574C66.4398 41.005 66.4253 41.0516 66.4064 41.0964L65.9484 42.286C65.8971 42.448 65.832 42.6054 65.7536 42.7562C65.6857 42.874 65.607 42.9851 65.5184 43.0883C65.4404 43.1773 65.3513 43.2561 65.2538 43.3232C65.1477 43.3803 65.0364 43.4269 64.9212 43.4623V43.4771C65.0521 43.5157 65.1773 43.5715 65.2934 43.643C65.4041 43.7144 65.5066 43.7979 65.5987 43.8921C65.6888 44.0026 65.7723 44.1181 65.8488 44.2384C65.9346 44.3991 66.0091 44.5655 66.072 44.7365L66.6147 46.0942C66.6423 46.1767 66.6566 46.2326 66.6707 46.2594L66.67 46.3501ZM71.426 41.0713C71.4288 41.1184 71.4244 41.1656 71.4121 41.2111C71.4113 41.2452 71.401 41.2783 71.3823 41.307C71.3734 41.3286 71.3593 41.3479 71.3413 41.3629C71.3199 41.3736 71.2961 41.3779 71.2722 41.3759H69.659V46.3494C69.661 46.3736 69.6561 46.3976 69.6448 46.4191C69.6234 46.4353 69.6 46.4492 69.5754 46.4601C69.5471 46.4743 69.5047 46.4743 69.4638 46.4885C69.4087 46.4885 69.3528 46.5023 69.2828 46.5023C69.2001 46.5023 69.1438 46.4885 69.1028 46.4885C69.0605 46.4821 69.0187 46.4726 68.9778 46.4601C68.9529 46.4499 68.9294 46.436 68.9084 46.4191C68.9084 46.3909 68.8942 46.3777 68.8942 46.3494V41.3759H67.2796C67.2557 41.3777 67.232 41.3734 67.2105 41.3629C67.1934 41.3471 67.1793 41.328 67.1694 41.307C67.1553 41.2802 67.1552 41.2513 67.1411 41.2111C67.1289 41.1658 67.1241 41.1189 67.1269 41.0721C67.1244 41.0221 67.1292 40.9719 67.1411 40.9232C67.1559 40.8831 67.156 40.8393 67.1694 40.8125C67.1796 40.7916 67.1936 40.7726 67.2105 40.7566C67.2316 40.745 67.2555 40.7401 67.2796 40.7421H71.2711C71.2952 40.7399 71.3195 40.7447 71.3405 40.7566C71.3583 40.7718 71.3724 40.791 71.3816 40.8125C71.4003 40.8465 71.4105 40.8845 71.4114 40.9232C71.4235 40.9718 71.4282 41.0221 71.426 41.0721V41.0713ZM76.2783 42.4156C76.2852 42.6806 76.238 42.9441 76.1398 43.1903C76.0517 43.4165 75.9135 43.6197 75.7356 43.785C75.5413 43.9463 75.3201 44.0722 75.082 44.1567C74.7856 44.2512 74.476 44.2977 74.1649 44.2943H73.5255V46.344C73.5253 46.3699 73.5154 46.3949 73.4979 46.414C73.4818 46.4305 73.463 46.4441 73.4426 46.4547C73.4012 46.4673 73.359 46.4768 73.3161 46.483C73.2744 46.483 73.2062 46.4972 73.1369 46.4972C73.0677 46.4972 72.9984 46.483 72.9552 46.483C72.9131 46.4766 72.8716 46.4671 72.8309 46.4547C72.8101 46.4442 72.7911 46.4307 72.7749 46.414C72.7623 46.3931 72.7576 46.3682 72.7611 46.344V41.0652C72.7563 41.018 72.7611 40.9706 72.7756 40.9254C72.7901 40.8803 72.8137 40.8383 72.845 40.8027C72.9065 40.7608 72.9782 40.7368 73.0526 40.733H74.2899C74.4063 40.7304 74.5228 40.7354 74.6385 40.7479C74.7744 40.7597 74.9091 40.7824 75.0413 40.8161C75.2142 40.851 75.3791 40.9175 75.528 41.0118C75.6805 41.0984 75.8168 41.2107 75.9308 41.344C76.0458 41.4843 76.1354 41.6438 76.1957 41.8148C76.2523 42.0103 76.2797 42.213 76.2775 42.4164L76.2783 42.4156ZM75.4869 42.4853C75.4952 42.2782 75.4471 42.0728 75.3477 41.8907C75.2752 41.7483 75.1649 41.6284 75.0286 41.5447C74.9053 41.4675 74.7679 41.4154 74.6244 41.3915C74.4907 41.3754 74.3562 41.3665 74.2216 41.3643H73.5255V43.6637H74.2074C74.401 43.6707 74.5943 43.6426 74.7778 43.5806C74.926 43.5308 75.0595 43.445 75.1663 43.3308C75.276 43.2295 75.3573 43.1014 75.4022 42.9591C75.4597 42.8081 75.4887 42.6476 75.4884 42.4861L75.4869 42.4853ZM82.7721 43.5367C82.778 43.9582 82.7218 44.3781 82.6053 44.7833C82.5075 45.1335 82.3372 45.4594 82.1051 45.7395C81.8879 46.0048 81.6058 46.2098 81.2861 46.3345C80.9246 46.4804 80.5372 46.5509 80.1473 46.5418C79.7645 46.5524 79.3828 46.4915 79.0223 46.3625C78.7205 46.2383 78.4532 46.0434 78.243 45.794C78.0194 45.5307 77.8622 45.2175 77.785 44.881C77.6779 44.4739 77.6259 44.0541 77.6301 43.6332C77.6254 43.2166 77.6819 42.8018 77.7977 42.4015C77.8943 42.0575 78.0602 41.7367 78.2848 41.4587C78.5119 41.2041 78.7909 41.0011 79.1034 40.8637C79.4703 40.7186 79.8628 40.6482 80.2575 40.6564C80.6371 40.6505 81.0145 40.7159 81.3698 40.8495C81.6712 40.9673 81.9388 41.1577 82.1491 41.4035C82.3689 41.6668 82.5301 41.9736 82.6224 42.3038C82.7254 42.7068 82.7756 43.1215 82.7714 43.5374L82.7721 43.5367ZM81.9532 43.5926C81.9558 43.2908 81.9275 42.9897 81.8685 42.6937C81.8242 42.431 81.7247 42.1805 81.5766 41.959C81.4505 41.7536 81.267 41.5897 81.0488 41.487C80.7903 41.3583 80.5035 41.2963 80.2149 41.307C79.9245 41.2985 79.6367 41.3649 79.3796 41.5001C79.1585 41.6158 78.968 41.7827 78.8242 41.9865C78.6795 42.2095 78.5802 42.4584 78.5312 42.7195C78.4629 43.0008 78.4304 43.2898 78.4349 43.5791C78.4321 43.8906 78.4601 44.2017 78.5178 44.5078C78.5641 44.7695 78.6637 45.0189 78.8104 45.2407C78.9367 45.4457 79.1201 45.6094 79.3382 45.7119C79.6027 45.8326 79.8903 45.8941 80.1811 45.8916C80.4719 45.8892 80.7587 45.8229 81.0212 45.6978C81.2432 45.578 81.4336 45.4073 81.5766 45.1997C81.7222 44.9769 81.8215 44.7272 81.8685 44.4653C81.9256 44.1781 81.9534 43.8861 81.9517 43.5933L81.9532 43.5926ZM88.6131 46.3483C88.6166 46.3726 88.6116 46.3974 88.599 46.4184C88.5796 46.4379 88.5553 46.4521 88.5288 46.4594C88.5013 46.4735 88.4589 46.4732 88.4179 46.4874C88.3621 46.4874 88.3069 46.5015 88.2369 46.5015C88.1535 46.5015 88.0979 46.4874 88.0428 46.4874C88.0011 46.4732 87.9602 46.4735 87.9319 46.4594C87.9037 46.4453 87.8767 46.4318 87.8767 46.4184C87.8589 46.3994 87.8488 46.3743 87.8483 46.3483V43.8148H85.2483V46.3483C85.2481 46.3744 85.2379 46.3996 85.2199 46.4184C85.2044 46.4355 85.1856 46.4496 85.1647 46.4594C85.1235 46.4721 85.0815 46.4813 85.0389 46.4874C84.9979 46.4874 84.9289 46.5015 84.859 46.5015C84.789 46.5015 84.7345 46.4874 84.6787 46.4874C84.6363 46.481 84.5946 46.4719 84.5536 46.4594C84.533 46.4488 84.514 46.4348 84.4976 46.4184C84.4856 46.3972 84.4809 46.3725 84.4842 46.3483V40.8466C84.4842 40.8184 84.4842 40.8059 84.4976 40.7918C84.5125 40.7636 84.5261 40.7501 84.5536 40.7501C84.5925 40.731 84.6354 40.7215 84.6787 40.7225C84.7378 40.7098 84.7985 40.7048 84.859 40.7076C84.9194 40.704 84.9798 40.7091 85.0389 40.7225C85.0824 40.7212 85.1256 40.7308 85.1647 40.7501C85.1937 40.7501 85.2072 40.7636 85.2199 40.7918C85.2287 40.7981 85.2357 40.8062 85.2406 40.8158C85.2455 40.8253 85.2483 40.8359 85.2483 40.8466V43.1464H87.8483V40.8466C87.8485 40.8359 87.8511 40.8253 87.856 40.8158C87.8609 40.8062 87.868 40.7982 87.8767 40.7918C87.8767 40.7636 87.9037 40.7501 87.9319 40.7501C87.9664 40.7327 88.0042 40.7232 88.0428 40.7225C88.1067 40.7092 88.1718 40.7041 88.2369 40.7076C88.2976 40.7048 88.3585 40.7098 88.4179 40.7225C88.4565 40.7231 88.4944 40.7326 88.5288 40.7501C88.5435 40.7478 88.5586 40.7508 88.5713 40.7584C88.5841 40.766 88.594 40.7778 88.599 40.7918C88.6131 40.8059 88.6131 40.8184 88.6131 40.8466V46.3483ZM94.9551 46.3632C94.9571 46.383 94.9517 46.403 94.9402 46.4191C94.921 46.4385 94.8969 46.4527 94.8707 46.4601C94.8417 46.4743 94.8016 46.4743 94.7599 46.4885C94.704 46.4885 94.6488 46.5023 94.5796 46.5023C94.4954 46.5023 94.4406 46.4885 94.3847 46.4885C94.3416 46.4743 94.3007 46.4743 94.2731 46.4601C94.2456 46.446 94.2179 46.4325 94.2179 46.4191C94.203 46.4039 94.193 46.3843 94.1895 46.3632V42.5946C94.1877 42.502 94.1925 42.4093 94.2037 42.3173C94.2007 42.2248 94.2057 42.1322 94.2186 42.0406H94.2037C94.1731 42.0855 94.1454 42.1322 94.1205 42.1804C94.0937 42.2213 94.0652 42.2771 94.0369 42.318C93.9994 42.3707 93.9673 42.427 93.9409 42.4861C93.9001 42.5298 93.867 42.5802 93.8428 42.6349L91.3532 46.361C91.339 46.3885 91.311 46.4021 91.2976 46.4169C91.2912 46.4297 91.2811 46.4402 91.2688 46.4474C91.2566 46.4547 91.2424 46.4585 91.2281 46.458C91.1989 46.4757 91.1656 46.4851 91.1314 46.4859C91.089 46.4859 91.048 46.5001 90.978 46.5001C90.9222 46.5001 90.8522 46.4859 90.8105 46.4859C90.7777 46.4785 90.7454 46.4694 90.7138 46.458C90.6887 46.4471 90.6686 46.4271 90.6578 46.4021C90.6429 46.3879 90.6433 46.3744 90.6433 46.3462V40.8445C90.6433 40.8162 90.6578 40.8038 90.6578 40.7896C90.6642 40.7767 90.6745 40.7658 90.6869 40.7584C90.6993 40.751 90.7135 40.7473 90.728 40.7479C90.7671 40.7303 90.8094 40.7209 90.8523 40.7203C90.9116 40.707 90.9726 40.7019 91.0333 40.7054C91.094 40.7026 91.1545 40.7076 91.214 40.7203C91.2525 40.721 91.2908 40.7305 91.3252 40.7479C91.3396 40.7473 91.3538 40.751 91.3663 40.7584C91.3787 40.7658 91.3886 40.7767 91.395 40.7896C91.4091 40.8038 91.4092 40.8162 91.4092 40.8445V44.8762C91.4092 44.9722 91.395 45.0562 91.395 45.1529C91.4562 45.0641 91.5122 44.9717 91.5625 44.8762C91.6325 44.7781 91.7016 44.6684 91.7701 44.5702L94.2448 40.8296L94.3004 40.7755C94.3218 40.7584 94.3455 40.7441 94.3706 40.733C94.3981 40.733 94.4256 40.7203 94.4673 40.7203C94.5172 40.7068 94.5691 40.7017 94.6206 40.7054C94.6767 40.7018 94.733 40.7068 94.7875 40.7203C94.8221 40.7207 94.8558 40.7303 94.8856 40.7479C94.9063 40.7584 94.9252 40.7726 94.9409 40.7896C94.9541 40.8101 94.9595 40.8345 94.9558 40.8586L94.9551 46.3632ZM100.808 46.3483C100.807 46.3743 100.797 46.3994 100.779 46.4184C100.764 46.4354 100.746 46.4494 100.725 46.4594C100.697 46.4735 100.654 46.4732 100.613 46.4874C100.559 46.4874 100.488 46.5015 100.418 46.5015C100.335 46.5015 100.266 46.4874 100.211 46.4874L100.085 46.4445C100.059 46.4316 100.035 46.4127 100.016 46.3894C99.9966 46.3666 99.9866 46.337 99.9888 46.3069L99.4595 44.9075C99.397 44.7428 99.318 44.585 99.2236 44.4363C99.1442 44.311 99.0457 44.1991 98.9317 44.1041C98.8123 44.0207 98.6811 43.9553 98.5424 43.9106C98.3887 43.8652 98.2291 43.842 98.0688 43.8416H97.7489V46.3476C97.7483 46.3734 97.7385 46.3984 97.7213 46.4177C97.7057 46.4346 97.6868 46.4487 97.666 46.4587C97.6251 46.4711 97.5833 46.4802 97.541 46.4866C97.4993 46.4866 97.443 46.5008 97.3596 46.5008C97.2896 46.5008 97.2351 46.4866 97.1793 46.4866C97.1376 46.4725 97.096 46.4728 97.0535 46.4587C97.0333 46.4481 97.0148 46.4341 96.999 46.4177C96.9858 46.3969 96.9805 46.3719 96.9841 46.3476V40.8459C96.9841 40.8177 96.9841 40.8052 96.999 40.7911C97.0131 40.7628 97.0267 40.7493 97.0535 40.7493C97.0937 40.7334 97.1361 40.724 97.1793 40.7218C97.2384 40.709 97.2991 40.704 97.3596 40.7069C97.4205 40.7027 97.4815 40.7077 97.541 40.7218C97.5843 40.7209 97.6271 40.7304 97.666 40.7493C97.6943 40.7493 97.7086 40.7628 97.7213 40.7911C97.7295 40.7978 97.7361 40.8059 97.7409 40.8154C97.7456 40.8249 97.7485 40.8353 97.7489 40.8459V43.1864H98.0688C98.2235 43.1915 98.3783 43.1731 98.5275 43.1315C98.659 43.0895 98.7815 43.0235 98.8892 42.9373C98.9946 42.8414 99.0836 42.729 99.1527 42.6044C99.2443 42.4582 99.3149 42.2995 99.3621 42.1336L99.8088 40.8877C99.8114 40.858 99.8208 40.8296 99.8368 40.8045C99.8568 40.7821 99.8806 40.7631 99.907 40.7486C99.9458 40.7294 99.9887 40.7199 100.032 40.721C100.096 40.707 100.161 40.7019 100.227 40.7061C100.287 40.7019 100.348 40.7069 100.406 40.721C100.45 40.7218 100.493 40.7312 100.533 40.7486C100.544 40.7493 100.554 40.754 100.561 40.7617C100.569 40.7694 100.573 40.7796 100.574 40.7904C100.589 40.8045 100.589 40.8169 100.589 40.8452C100.591 40.8827 100.586 40.9203 100.574 40.9559C100.572 41.0048 100.557 41.0525 100.533 41.0949L100.072 42.2846C100.022 42.4468 99.957 42.604 99.8779 42.7543C99.8099 42.8693 99.7355 42.9805 99.6547 43.0869C99.5715 43.1762 99.4778 43.255 99.3755 43.3218C99.2695 43.3795 99.1575 43.4261 99.0419 43.4608V43.4757C99.1728 43.5142 99.2979 43.57 99.4141 43.6416C99.525 43.7133 99.6279 43.7968 99.7209 43.8906C99.81 44.0017 99.8932 44.1172 99.9702 44.237C100.055 44.3983 100.129 44.5646 100.193 44.735L100.736 46.0928C100.764 46.1753 100.777 46.2312 100.791 46.2579C100.793 46.2951 100.807 46.3212 100.807 46.3494L100.808 46.3483ZM106.732 46.3632C106.732 46.3773 106.719 46.4043 106.719 46.4191C106.697 46.4353 106.673 46.4491 106.648 46.4601C106.619 46.4743 106.578 46.4743 106.538 46.4885C106.481 46.4885 106.425 46.5023 106.343 46.5023C106.273 46.5023 106.217 46.4885 106.162 46.4885C106.124 46.4825 106.086 46.473 106.05 46.4601C106.026 46.4491 106.002 46.4352 105.981 46.4191C105.969 46.4032 105.963 46.3831 105.965 46.3632V42.318C105.977 42.2263 105.982 42.1338 105.981 42.0414C105.95 42.0861 105.922 42.1328 105.897 42.1811C105.869 42.222 105.842 42.2778 105.814 42.3187C105.772 42.3745 105.744 42.4303 105.704 42.4868C105.675 42.5277 105.648 42.5821 105.605 42.6356L103.131 46.3618L103.074 46.4177C103.068 46.4303 103.058 46.4409 103.046 46.4482C103.034 46.4554 103.02 46.4591 103.006 46.4587C102.976 46.4744 102.942 46.4837 102.908 46.4866C102.866 46.4866 102.811 46.5008 102.755 46.5008C102.686 46.5008 102.629 46.4866 102.588 46.4866C102.555 46.4791 102.523 46.47 102.491 46.4587C102.466 46.4475 102.446 46.4275 102.435 46.4028C102.422 46.3887 102.422 46.3751 102.422 46.3469V40.8452C102.422 40.8169 102.422 40.8045 102.435 40.7904C102.441 40.7774 102.451 40.7665 102.464 40.7591C102.476 40.7517 102.49 40.748 102.505 40.7486C102.543 40.7296 102.586 40.7201 102.629 40.721C102.684 40.7076 102.741 40.7026 102.797 40.7061C102.863 40.7027 102.928 40.7077 102.992 40.721C103.031 40.7215 103.068 40.731 103.103 40.7486C103.131 40.7486 103.158 40.7621 103.158 40.7904C103.167 40.7966 103.174 40.8048 103.179 40.8143C103.184 40.8239 103.187 40.8344 103.187 40.8452V44.877C103.185 44.9698 103.175 45.0624 103.158 45.1536H103.173C103.234 45.0646 103.29 44.9722 103.34 44.877C103.41 44.7788 103.479 44.6691 103.549 44.5709L106.024 40.8303C106.038 40.8086 106.057 40.7903 106.079 40.7762C106.1 40.759 106.123 40.7446 106.148 40.7337C106.176 40.7337 106.204 40.721 106.246 40.721C106.296 40.7075 106.347 40.7024 106.399 40.7061C106.455 40.7038 106.512 40.7089 106.567 40.721C106.624 40.7243 106.679 40.7488 106.72 40.7896C106.732 40.8105 106.737 40.8347 106.733 40.8586L106.732 46.3632Z" fill="grey"/>
<path d="M51.1795 38.1931C51.1792 38.219 51.1693 38.2437 51.1519 38.2628C51.1249 38.2895 51.0913 38.3087 51.0545 38.318C50.9994 38.3321 50.9434 38.3453 50.8742 38.3594C50.7772 38.3723 50.6793 38.3773 50.5816 38.3743C50.4841 38.3774 50.3867 38.3724 50.29 38.3594C50.2201 38.3453 50.1634 38.3321 50.1083 38.318C50.0915 38.315 50.0753 38.3086 50.061 38.2991C50.0468 38.2897 50.035 38.2772 50.0258 38.2628C50.0126 38.2566 50.0013 38.2466 49.9938 38.2342C49.9863 38.2217 49.9827 38.2077 49.9833 38.1931V35.8941H47.7863V38.1931C47.7863 38.2221 47.7862 38.2487 47.7594 38.2628C47.7445 38.2911 47.7171 38.3046 47.6612 38.318C47.6022 38.3368 47.5415 38.3504 47.4802 38.3594C47.3886 38.3728 47.2962 38.3778 47.2036 38.3743C47.1056 38.3774 47.0075 38.3724 46.9103 38.3594C46.8487 38.3502 46.7879 38.3365 46.7285 38.318C46.6883 38.3046 46.6467 38.2911 46.6325 38.2628C46.6149 38.2438 46.6048 38.2191 46.6042 38.1931V32.8334C46.6073 32.8041 46.617 32.7757 46.6325 32.7506C46.6467 32.7224 46.6883 32.7092 46.7285 32.6951C46.788 32.6768 46.8488 32.6626 46.9103 32.6526C46.9936 32.6526 47.0904 32.6392 47.2036 32.6392C47.3168 32.6392 47.411 32.6526 47.4802 32.6526C47.5415 32.6623 47.6021 32.6765 47.6612 32.6951C47.7171 32.7092 47.7445 32.7224 47.7594 32.7506C47.7696 32.7616 47.7777 32.7748 47.7823 32.7891C47.7869 32.8033 47.7881 32.8185 47.7863 32.8334V34.9106H49.9833V32.8334C49.9843 32.8175 49.9887 32.8018 49.996 32.7876C50.0033 32.7734 50.0134 32.7607 50.0258 32.7506C50.0399 32.7224 50.0674 32.7092 50.1083 32.6951C50.1634 32.6817 50.2201 32.6667 50.29 32.6526C50.3719 32.6526 50.4692 32.6392 50.5816 32.6392C50.694 32.6392 50.7893 32.6526 50.8742 32.6526C50.9434 32.6667 50.9994 32.6817 51.0545 32.6951C51.0912 32.705 51.1247 32.724 51.1519 32.7506C51.1672 32.7757 51.1767 32.8041 51.1795 32.8334V38.1931ZM57.5898 38.1931C57.5867 38.2225 57.5776 38.2508 57.5625 38.2763C57.4827 38.337 57.3834 38.3663 57.2833 38.3587C57.1864 38.3717 57.0885 38.3766 56.9907 38.3736C56.8937 38.3766 56.7965 38.3717 56.7003 38.3587C56.639 38.3584 56.5779 38.3494 56.5193 38.3315C56.4873 38.32 56.4586 38.301 56.4353 38.2763C56.4251 38.2652 56.4174 38.2518 56.4128 38.2374C56.4081 38.223 56.4066 38.2081 56.4084 38.1931V34.8689C56.4059 34.7713 56.4102 34.6736 56.4211 34.5766H56.4084C56.3775 34.6212 56.3495 34.6676 56.3244 34.7157C56.2962 34.7714 56.2545 34.8273 56.2136 34.8972C56.186 34.9522 56.1441 35.007 56.1016 35.0762C56.0599 35.1312 56.0197 35.2012 55.9773 35.2577L53.9334 38.208C53.9058 38.232 53.882 38.2599 53.8632 38.2912C53.8364 38.3045 53.7941 38.3319 53.7658 38.3452C53.7159 38.3574 53.6644 38.3622 53.6131 38.3594C53.5355 38.373 53.4567 38.378 53.3779 38.3743C53.2849 38.3778 53.1917 38.3728 53.0995 38.3594C53.0426 38.3591 52.986 38.3501 52.9319 38.3322C52.9001 38.3208 52.8717 38.3018 52.8487 38.277C52.8336 38.2515 52.8242 38.2233 52.8211 38.1939V32.8207C52.8214 32.7948 52.8313 32.7698 52.8487 32.7506C52.8761 32.7243 52.9095 32.7053 52.9461 32.6951C53.0019 32.6817 53.0571 32.6667 53.1279 32.6526C53.2105 32.6526 53.3077 32.6392 53.4194 32.6392C53.5311 32.6392 53.6279 32.6526 53.7113 32.6526C53.7805 32.6667 53.8372 32.6817 53.893 32.6951C53.934 32.7092 53.9622 32.7224 53.9748 32.7506C54.0038 32.7632 54.0039 32.7917 54.0039 32.8207V36.1297C54.0062 36.2318 54.0012 36.334 53.989 36.4354H54.0039C54.059 36.3521 54.1142 36.2415 54.1984 36.1166C54.2825 35.9917 54.3509 35.8807 54.4343 35.7565L56.4778 32.8214C56.5069 32.7924 56.5208 32.7639 56.5476 32.7372C56.5783 32.716 56.6109 32.698 56.6451 32.6831C56.6867 32.6675 56.7419 32.6674 56.7984 32.654C56.8535 32.654 56.9369 32.6406 57.0336 32.6406C57.1445 32.6406 57.2428 32.654 57.3121 32.654C57.3684 32.6651 57.4242 32.6793 57.4789 32.6965C57.5213 32.7106 57.5498 32.7238 57.5632 32.7521C57.5806 32.7712 57.5901 32.7963 57.5905 32.8221L57.5898 38.1931ZM63.9997 38.1931C64.0016 38.2082 64.0001 38.2234 63.9953 38.2378C63.9905 38.2522 63.9826 38.2653 63.972 38.2763C63.9434 38.3007 63.9104 38.3195 63.8746 38.3315C63.8165 38.3492 63.7559 38.3582 63.6951 38.3587C63.5005 38.378 63.3044 38.378 63.1098 38.3587C63.0486 38.3571 62.9881 38.3482 62.9292 38.3315C62.8976 38.3201 62.869 38.301 62.8463 38.2763C62.8358 38.2653 62.8278 38.2522 62.823 38.2378C62.8183 38.2234 62.8168 38.2082 62.8187 38.1931V34.8689C62.8187 34.7588 62.8336 34.6614 62.8336 34.5766H62.8187C62.7987 34.6272 62.7706 34.6742 62.7354 34.7157C62.7079 34.7714 62.6656 34.8273 62.638 34.8972C62.5926 34.9541 62.5511 35.0138 62.5137 35.0762C62.4713 35.1312 62.4289 35.2012 62.3879 35.2577L60.3436 38.208C60.3161 38.2348 60.3018 38.2629 60.2727 38.2912C60.2425 38.3122 60.2104 38.3302 60.1768 38.3452C60.1266 38.3574 60.0749 38.3622 60.0234 38.3594C59.9497 38.3726 59.875 38.3776 59.8002 38.3743C59.7024 38.3782 59.6045 38.3732 59.5076 38.3594C59.4509 38.3594 59.3945 38.3504 59.3407 38.3322C59.3086 38.3209 59.2799 38.3019 59.2568 38.277C59.2413 38.2518 59.232 38.2234 59.2299 38.1939V32.8207C59.2293 32.7948 59.239 32.7695 59.2568 32.7506C59.284 32.724 59.3175 32.705 59.3542 32.6951C59.4093 32.6817 59.4653 32.6667 59.5487 32.6526C59.6186 32.6526 59.7162 32.6392 59.8278 32.6392C59.9395 32.6392 60.0352 32.6526 60.1193 32.6526C60.1893 32.6667 60.2594 32.6817 60.3004 32.6951C60.3367 32.705 60.3697 32.724 60.3963 32.7506C60.4146 32.7693 60.4248 32.7946 60.4247 32.8207V35.8258C60.4247 35.9225 60.4105 36.0182 60.4105 36.129C60.4128 36.231 60.4078 36.3333 60.3956 36.4346H60.4105C60.4663 36.3514 60.5216 36.2404 60.6057 36.1155C60.6898 35.9906 60.7724 35.8799 60.8558 35.7558L62.8859 32.8207C62.915 32.7917 62.9281 32.7632 62.9564 32.7365C62.987 32.7154 63.0196 32.6975 63.0535 32.6824C63.0959 32.6667 63.151 32.6667 63.2083 32.6533C63.2619 32.6533 63.3468 32.6399 63.4428 32.6399C63.5545 32.6399 63.6513 32.6533 63.7212 32.6533C63.7776 32.6643 63.833 32.6786 63.8877 32.6958C63.9294 32.7099 63.9579 32.7231 63.9713 32.7513C63.9989 32.764 63.9989 32.7924 63.9989 32.8214L63.9997 38.1931Z" fill="grey"/>
</svg>
